<?xml version="1.0" encoding="UTF-8"?>
<svg width="393.235" height="491.029" xmlns="http://www.w3.org/2000/svg" xmlns:svg="http://www.w3.org/2000/svg">
 <g>
  <title>Layer 1</title>
  <g id="Layer_1">
   <path fill="#3a7e9f" id="svg_1" stroke-linejoin="bevel" stroke="#FFFFFF" d="m195.547,490.529l2.142,0l11,-449.254l-24.142,0l11,449.254z"/>
   <g id="svg_2">
    <path fill="#3a7e9f" id="svg_3" stroke-linejoin="bevel" stroke="#FFFFFF" d="m170.192,99.68c-21.71,2.74 -41.39,-22.67 -31.37,-28.64c0.97,-2.25 0.69,-3.42 -1.63,-2.99c-23.6,3.25 -38.52,-16.36 -35.92,-36.81c0.17,-1.37 -0.771,-1.65 -1.53,-1.7c-0.88,-0.06 -1.58,0.99 -2.02,1.7c-7.33,11.82 -19.75,19.01 -31.08,26.59c-13,8.71 -33.12,19.88 -41.811,21.38c-7.68,1.32 -19.75,2.73 -24.13,-3.53c-0.899,-1.5 -0.01,-1.66 1.07,-2.25c14.4,-7.23 15.91,-5.63 42.3,-22.33c23.16,-14.66 45.51,-33.92 67,-44.8c9.45,-4.78 38.75,-9.15 48.97,4.9c17.41,23.94 -7.029,34.37 -7.729,38.6c-1.35,8.17 6.689,23.35 27.6,17.81l2.75,-0.87l0.65,29.13l-0.94,0.52c-4.08,2.009 -8.189,3.04 -12.18,3.29z"/>
    <path fill="#3a7e9f" id="svg_4" stroke-linejoin="bevel" stroke="#FFFFFF" d="m92.032,44.509c0.7,-0.79 3.82,-2.29 4,-1c0.48,3.4 2.29,8.03 4.29,11.79c0.68,1.27 -0.81,2.89 -1.75,4c-13.399,11.32 -29.21,22.09 -42.87,28.15c-4.39,1.53 -9.26,2.39 -13.95,2.01c-3.159,-0.25 -7.55,-0.07 -9.069,-2.85c-0.351,-0.65 0.149,-1.53 0.58,-2.12c21.21,-8.749 37.469,-21.059 58.769,-39.98z"/>
    <path fill="#3a7e9f" id="svg_5" stroke-linejoin="bevel" stroke="#FFFFFF" d="m100.572,62.27c0.62,-0.66 1.7,-1.44 2.93,-0.93c2.881,3.35 4.471,4.94 7.851,6.43c1.08,0.47 2.45,1.96 0.649,3.5c-18.92,16.04 -33.25,29.69 -52.029,24.55c-0.601,-0.16 -0.46,-2.05 0.069,-2.36c11.141,-6.42 23.96,-13.481 40.53,-31.19z"/>
    <path fill="#3a7e9f" id="svg_6" stroke-linejoin="bevel" stroke="#FFFFFF" d="m115.952,71.99c2.95,-1.99 0.49,0.45 13.3,1.4c1.66,0.12 -0.189,3.64 -0.779,5.22c-5.86,8.53 -15.86,16.35 -24.29,20.42c-4.08,1.98 -9.58,3.01 -13.641,0.93c-0.399,-0.2 -0.489,-0.92 -0.72,-1.14c-0.83,-0.84 5.47,-5.43 11.29,-10.71c5.521,-5.021 13.201,-13.441 14.84,-16.12z"/>
    <path fill="#3a7e9f" id="svg_7" stroke-linejoin="bevel" stroke="#FFFFFF" d="m223.043,99.68c21.71,2.74 41.39,-22.67 31.37,-28.64c-0.971,-2.25 -0.69,-3.42 1.63,-2.99c23.6,3.25 38.52,-16.36 35.92,-36.81c-0.17,-1.37 0.77,-1.65 1.529,-1.7c0.881,-0.06 1.58,0.99 2.021,1.7c7.33,11.82 19.75,19.01 31.08,26.59c13,8.71 33.12,19.88 41.81,21.38c7.681,1.32 19.75,2.73 24.13,-3.53c0.9,-1.5 0.011,-1.66 -1.069,-2.25c-14.4,-7.23 -15.91,-5.63 -42.3,-22.33c-23.16,-14.66 -45.511,-33.92 -67,-44.8c-9.45,-4.78 -38.75,-9.15 -48.971,4.9c-17.41,23.94 7.03,34.37 7.73,38.6c1.35,8.17 -6.69,23.35 -27.601,17.81l-2.75,-0.87l-0.649,29.13l0.939,0.52c4.08,2.009 8.191,3.04 12.181,3.29z"/>
    <path fill="#3a7e9f" id="svg_8" stroke-linejoin="bevel" stroke="#FFFFFF" d="m301.203,44.509c-0.7,-0.79 -3.82,-2.29 -4,-1c-0.48,3.4 -2.29,8.03 -4.29,11.79c-0.681,1.27 0.81,2.89 1.75,4c13.399,11.32 29.21,22.09 42.869,28.15c4.391,1.53 9.261,2.39 13.95,2.01c3.16,-0.25 7.55,-0.07 9.07,-2.85c0.35,-0.65 -0.15,-1.53 -0.58,-2.12c-21.209,-8.749 -37.469,-21.059 -58.769,-39.98z"/>
    <path fill="#3a7e9f" id="svg_9" stroke-linejoin="bevel" stroke="#FFFFFF" d="m292.663,62.27c-0.62,-0.66 -1.7,-1.44 -2.931,-0.93c-2.88,3.35 -4.47,4.94 -7.85,6.43c-1.08,0.47 -2.45,1.96 -0.65,3.5c18.92,16.04 33.25,29.69 52.03,24.55c0.6,-0.16 0.46,-2.05 -0.07,-2.36c-11.139,-6.42 -23.96,-13.481 -40.529,-31.19z"/>
    <path fill="#3a7e9f" id="svg_10" stroke-linejoin="bevel" stroke="#FFFFFF" d="m277.282,71.99c-2.949,-1.99 -0.489,0.45 -13.3,1.4c-1.66,0.12 0.19,3.64 0.78,5.22c5.86,8.53 15.86,16.35 24.29,20.42c4.08,1.98 9.58,3.01 13.64,0.93c0.4,-0.2 0.49,-0.92 0.721,-1.14c0.829,-0.84 -5.471,-5.43 -11.29,-10.71c-5.52,-5.021 -13.2,-13.441 -14.841,-16.12z"/>
   </g>
   <path fill="#3a7e9f" id="svg_11" stroke="#FFFFFF" d="m196.612,0.5c10.16,0 18.41,8.25 18.41,18.41s-8.25,18.4 -18.41,18.4s-18.399,-8.24 -18.399,-18.4s8.239,-18.41 18.399,-18.41z"/>
   <path id="svg_12" stroke-width="0.5" stroke-linejoin="bevel" stroke="#3a7e9f" fill="#3a7e9f" d="m201.502,11.16c-0.88,-1.48 0.37,-4.14 3.13,-3.25c10.66,4.84 5.4,23.47 -6.38,22.95c-1.81,0.05 -2.39,-1.71 -1.04,-2.66c5.15,-3.5 9.48,-8.64 4.29,-17.04z"/>
   <path fill="#3a7e9f" id="svg_13" stroke-linejoin="bevel" stroke="#FFFFFF" d="m260.688,147.33c1.189,-13.25 -9.47,-28.42 -26.46,-29.89c-5.91,-0.51 -14.79,-0.55 -19.93,4.08c-4.87,4.39 7.859,13.56 14.54,14.22c8.949,0.88 13.659,-3.42 15.26,-5.92c0.55,-0.84 1.54,-0.5 1.89,0.36c4.06,30.312 -26.827,37.222 -49.365,43.601c4.668,1.321 8.978,2.62 12.545,4.099c6.315,2.621 11.71,5.443 16.313,8.405c17.681,-9.139 33.649,-21.456 35.207,-38.955z"/>
   <path fill="#3a7e9f" id="svg_14" stroke-linejoin="bevel" stroke="#FFFFFF" d="m177.638,412.78c-10.69,10.91 -9.85,27.12 1.8,38.72c-1.8,-11.93 -6.21,-20.91 7.18,-31.85c3.354,-2.743 6.631,-4.728 10.003,-6.621c-3.78,-2.123 -7.685,-4.133 -11.957,-6.969c-2.699,2.518 -5.144,4.802 -7.026,6.72z"/>
   <path fill="#3a7e9f" id="svg_15" stroke-linejoin="bevel" stroke="#FFFFFF" d="m218.288,268.509c-6.986,-4.442 -14.61,-8.368 -21.666,-12.318c-4.123,-2.309 -8.052,-4.626 -11.544,-7.062c-19.95,-13.91 -20.11,-37.6 8.97,-49.2c0.839,-0.334 1.7,-0.677 2.574,-1.024c-8.702,-3.454 -19.041,-7.548 -28.858,-12.622c-35.285,22.698 -23.452,53.638 -12.766,65.925c5.244,6.019 12.371,11.305 19.957,16.301c7.218,4.753 14.846,9.243 21.667,13.849c5.177,3.495 9.89,7.056 13.596,10.851c13.09,13.41 2.3,28.45 -3.11,32.51c-3.36,2.519 -6.904,4.779 -10.486,6.994c7.544,4.661 15.253,9.117 21.811,15.288c8.746,-6.794 16.653,-15.453 21.025,-27.021c10.082,-26.684 -3.5,-41.235 -21.17,-52.471z"/>
   <path fill="#3a7e9f" id="svg_16" stroke-linejoin="bevel" stroke="#FFFFFF" d="m225.48,186.284c-4.604,-2.961 -9.998,-5.784 -16.313,-8.405c-3.567,-1.479 -7.877,-2.777 -12.545,-4.099c-22.537,-6.379 -53.424,-13.289 -49.364,-43.601c0.35,-0.86 1.34,-1.2 1.88,-0.36c1.6,2.5 6.31,6.8 15.27,5.92c6.681,-0.66 19.41,-9.83 14.54,-14.22c-5.14,-4.63 -14.02,-4.59 -19.93,-4.08c-16.99,1.47 -27.65,16.64 -26.47,29.89c1.564,17.499 17.533,29.816 35.216,38.955c9.817,5.074 20.156,9.168 28.858,12.622c0.875,0.347 1.736,0.689 2.575,1.024c29.08,11.6 28.92,35.29 8.97,49.2c-3.492,2.436 -7.421,4.753 -11.545,7.062c7.056,3.95 14.68,7.876 21.666,12.318c7.584,-4.995 14.709,-10.282 19.949,-16.3c10.695,-12.288 22.53,-43.228 -12.757,-65.926z"/>
   <path fill="#3a7e9f" id="svg_17" stroke-linejoin="bevel" stroke="#FFFFFF" d="m215.607,412.78c-1.883,-1.918 -4.328,-4.203 -7.027,-6.722c-3.752,-3.501 -7.995,-7.46 -11.958,-11.563c-2.786,-2.886 -5.434,-5.837 -7.654,-8.746c-9.3,-12.17 -0.25,-19.99 6.87,-23.77c0.259,-0.138 0.522,-0.278 0.785,-0.417c-6.839,-3.64 -14.607,-7.967 -21.81,-13.562c-1.496,1.407 -2.937,2.897 -4.296,4.508c-12.41,14.7 -9.17,32.181 0,41.65c5.247,5.416 9.88,9.069 14.146,11.9c4.272,2.836 8.177,4.846 11.957,6.969c3.371,1.894 6.646,3.878 9.997,6.621c13.4,10.939 8.99,19.92 7.19,31.85c11.65,-11.598 12.491,-27.808 1.8,-38.718z"/>
   <path fill="#3a7e9f" id="svg_18" stroke-linejoin="bevel" stroke="#FFFFFF" d="m222.728,352.509c-1.359,-1.61 -2.8,-3.101 -4.296,-4.508c-6.558,-6.171 -14.267,-10.627 -21.811,-15.288c-3.584,-2.215 -7.13,-4.476 -10.493,-6.994c-5.4,-4.06 -16.2,-19.1 -3.101,-32.51c3.705,-3.795 8.419,-7.355 13.595,-10.851c-6.821,-4.605 -14.449,-9.096 -21.667,-13.849c-17.669,11.235 -31.25,25.787 -21.167,52.47c4.372,11.568 12.279,20.228 21.025,27.021c7.202,5.595 14.971,9.922 21.81,13.562c0.262,0.139 0.525,0.279 0.784,0.417c7.12,3.779 16.17,11.6 6.87,23.77c-2.221,2.909 -4.868,5.86 -7.655,8.746c3.963,4.103 8.206,8.062 11.958,11.563c4.265,-2.83 8.898,-6.483 14.147,-11.898c9.17,-9.47 12.411,-26.951 0.001,-41.651z"/>
  </g>
 </g>
</svg>